#!OML:ASF F:\VICON\USERDATA\INSTALL\Justin_Nancy\Justin_Nancy.ASF
:FULLY-SPECIFIED
:DEGREES
33
root 0.31532 16.2075 -31.1398 22.1581 0.499677 -0.903628
lowerback 13.2438 1.75752 3.3868
upperback 1.6517 2.909 1.73967
thorax -5.60324 1.36513 -0.595175
lowerneck -13.5639 -5.70043 -9.17804
upperneck 3.22069 -6.70517 8.75371
head 3.75799 -3.03611 3.67036
rclavicle -1.98785e-015 -8.74653e-015
rhumerus -28.2811 16.449 -88.1509
rradius 89.4702
rwrist -5.03797
rhand -18.6541 20.8916
rfingers 7.12502
rthumb 7.63907 -8.9504
lclavicle -1.98785e-015 -8.74653e-015
lhumerus -49.6094 2.18471 83.6958
lradius 68.3525
lwrist 16.6743
lhand -19.4575 25.2456
lfingers 7.12502
lthumb 6.86352 55.1143
rfemur 5.25909 5.18647 26.0395
rtibia 21.001
rfoot -9.2191 0.684101
rtoes -15.2956
lfemur -60.6514 10.3034 -23.211
ltibia 76.0275
lfoot -10.2448 -14.9696
ltoes -8.45079
34
root 0.303755 16.1871 -30.8871 21.9514 0.676333 -1.10841
lowerback 13.8607 1.6974 3.19654
upperback 1.42866 2.84269 1.78595
thorax -6.19591 1.32486 -0.454024
lowerneck -13.607 -5.71698 -9.09094
upperneck 3.64919 -6.78549 9.03579
head 3.91209 -3.05704 3.73309
rclavicle 3.18055e-015 7.95139e-015
rhumerus -29.2416 16.9706 -88.4899
rradius 90.1055
rwrist -4.73585
rhand -18.3442 20.7138
rfingers 7.12502
rthumb 7.93815 -9.11713
lclavicle 3.18055e-015 7.95139e-015
lhumerus -50.0347 1.96028 83.6799
lradius 69.0515
lwrist 17.6389
lhand -20.4294 22.8269
lfingers 7.12502
lthumb 5.92524 52.7241
rfemur 4.52152 5.65147 26.2698
rtibia 23.7249
rfoot -5.67198 2.03363
rtoes -11.0419
lfemur -59.4156 10.3671 -23.0142
ltibia 75.8925
lfoot -10.0706 -15.0347
ltoes -9.58532
35
root 0.295148 16.1519 -30.6259 21.5145 1.07475 -1.08739
lowerback 14.2263 1.54062 2.86777
upperback 1.55369 2.60354 1.87949
thorax -6.29137 1.21692 -0.135461
lowerneck -13.874 -5.60159 -8.90052
upperneck 3.94032 -6.66501 9.10909
head 4.02979 -2.98207 3.72944
rclavicle -2.3059e-014 -1.11319e-014
rhumerus -29.8851 17.3659 -88.5708
rradius 90.5816
rwrist -4.5635
rhand -17.6021 20.329
rfingers 7.12502
rthumb 8.65429 -9.47365
lclavicle -2.3059e-014 -1.11319e-014
lhumerus -49.8274 1.81271 83.8547
lradius 69.7547
lwrist 18.4783
lhand -20.9855 22.9651
lfingers 7.12502
lthumb 5.38834 52.8766
rfemur 3.95904 6.03082 26.4139
rtibia 26.6277
rfoot -1.38926 3.54287
rtoes -7.40609
lfemur -57.6209 10.0993 -22.822
ltibia 75.8582
lfoot -11.3055 -15.4015
ltoes -10.4784
36
root 0.287865 16.114 -30.381 21.2465 1.24105 -1.33635
lowerback 14.6692 1.41867 2.51249
upperback 1.40826 2.42723 2.10919
thorax -6.72115 1.13696 0.327531
lowerneck -13.5079 -5.34201 -8.82091
upperneck 4.16307 -6.37205 9.11108
head 4.0109 -2.84354 3.74894
rclavicle -1.39149e-014 -3.97569e-015
rhumerus -30.8256 17.9359 -88.6921
rradius 90.7276
rwrist -4.59545
rhand -17.7657 20.3766
rfingers 7.12502
rthumb 8.49648 -9.43247
lclavicle -1.39149e-014 -3.97569e-015
lhumerus -49.9713 1.85093 84.086
lradius 70.6836
lwrist 19.5838
lhand -20.9643 24.0415
lfingers 7.12502
lthumb 5.40884 53.9524
rfemur 2.56312 6.45906 26.6029
rtibia 30.4577
rfoot 2.71459 6.09003
rtoes -3.29352
lfemur -55.8456 9.88358 -22.2883
ltibia 75.6822
lfoot -13.0351 -14.936
ltoes -11.314
37
root 0.270735 16.006 -30.174 21.2477 1.64699 -1.22811
lowerback 14.2774 1.24487 1.90105
upperback 1.49744 2.09684 2.28268
thorax -6.44036 0.999545 0.931081
lowerneck -13.1579 -5.11436 -9.07451
upperneck 4.19654 -6.08754 9.51645
head 3.96266 -2.69559 3.94763
rclavicle -7.95139e-016 -3.18055e-015
rhumerus -31.4148 18.1538 -88.6125
rradius 90.6491
rwrist -4.72552
rhand -17.6965 20.5698
rfingers 7.12502
rthumb 8.5632 -9.2366
lclavicle -7.95139e-016 -3.18055e-015
lhumerus -49.6813 1.59359 84.5309
lradius 71.8125
lwrist 21.0468
lhand -21.5685 24.1549
lfingers 7.12502
lthumb 4.82541 54.08
rfemur 1.59343 6.57331 26.6013
rtibia 34.5136
rfoot 4.01118 9.04686
rtoes -0.732084
lfemur -54.7122 9.21279 -22.0025
ltibia 75.6817
lfoot -14.6473 -13.4286
ltoes -13.771
38
root 0.260133 16.075 -29.8574 21.2022 1.7486 -0.979999
lowerback 12.5648 1.17219 1.45928
upperback 2.66523 1.83763 2.11499
thorax -4.26826 0.895727 1.09351
lowerneck -13.5331 -5.34989 -9.01596
upperneck 2.9886 -6.35823 10.1057
head 3.70304 -2.79998 4.09896
rclavicle 7.55382e-015 -7.95139e-015
rhumerus -30.4882 17.7183 -88.2626
rradius 90.4726
rwrist -4.79106
rhand -17.4262 20.2357
rfingers 7.12502
rthumb 8.82407 -9.55977
lclavicle 7.55382e-015 -7.95139e-015
lhumerus -47.2875 1.20637 84.5483
lradius 72.3236
lwrist 20.9138
lhand -21.1873 23.8799
lfingers 7.12502
lthumb 5.19352 53.7963
rfemur -1.97646 6.31484 26.2096
rtibia 39.2067
rfoot 9.06491 11.8754
rtoes 1.82412
lfemur -52.0105 8.66657 -21.8642
ltibia 74.4178
lfoot -16.7102 -12.4433
ltoes -14.4995
39
root 0.26653 16.0296 -29.5921 20.7615 1.44539 -0.519726
lowerback 13.1245 0.995031 1.16021
upperback 2.7473 1.54416 1.491
thorax -4.47637 0.750925 0.647862
lowerneck -13.59 -5.27315 -8.57738
upperneck 2.78917 -6.349 10.581
head 3.65788 -2.76774 4.17757
rclavicle -8.34896e-015 -2.22639e-014
rhumerus -31.4208 17.1733 -89.2076
rradius 90.1284
rwrist -4.42323
rhand -17.626 19.5241
rfingers 7.12502
rthumb 8.63123 -10.2794
lclavicle -8.34896e-015 -2.22639e-014
lhumerus -46.5642 0.741344 83.7624
lradius 72.6804
lwrist 20.0951
lhand -19.4922 23.2518
lfingers 7.12502
lthumb 6.83001 53.1216
rfemur -3.5784 6.38984 25.2579
rtibia 44.0357
rfoot 10.6622 14.1137
rtoes 7.30687
lfemur -49.5813 8.2154 -22.1386
ltibia 73.596
lfoot -18.7199 -12.1914
ltoes -15.1355
